<svg width="16" height="16" viewBox="0 0 16 16" fill="none" xmlns="http://www.w3.org/2000/svg">
<path d="M10.9091 10.1818H5.81818V8.72727H10.9091V10.1818ZM13.0909 7.27273H5.81818V5.81818H13.0909V7.27273ZM13.0909 4.36364H5.81818V2.90909H13.0909V4.36364ZM14.5455 0H4.36364C3.55636 0 2.90909 0.647273 2.90909 1.45455V11.6364C2.90909 12.4436 3.56364 13.0909 4.36364 13.0909H14.5455C15.3527 13.0909 16 12.4436 16 11.6364V1.45455C16 0.647273 15.3455 0 14.5455 0ZM1.45455 2.90909V14.5455H13.0909V16H1.45455C1.06878 16 0.698807 15.8468 0.426027 15.574C0.153246 15.3012 0 14.9312 0 14.5455V2.90909H1.45455Z" fill="#CBD6E3"/>
</svg>
