<svg width="20" height="16" viewBox="0 0 20 16" fill="none" xmlns="http://www.w3.org/2000/svg">
<path d="M4.86486 0.533333H20V2.66667H4.86486V0.533333ZM4.86486 9.06667V6.93333H20V9.06667H4.86486ZM1.62162 0C2.0517 0 2.46417 0.168571 2.76828 0.468629C3.07239 0.768687 3.24324 1.17565 3.24324 1.6C3.24324 2.02435 3.07239 2.43131 2.76828 2.73137C2.46417 3.03143 2.0517 3.2 1.62162 3.2C1.19154 3.2 0.779075 3.03143 0.474962 2.73137C0.170849 2.43131 0 2.02435 0 1.6C0 1.17565 0.170849 0.768687 0.474962 0.468629C0.779075 0.168571 1.19154 0 1.62162 0ZM1.62162 6.4C2.0517 6.4 2.46417 6.56857 2.76828 6.86863C3.07239 7.16869 3.24324 7.57565 3.24324 8C3.24324 8.42435 3.07239 8.83131 2.76828 9.13137C2.46417 9.43143 2.0517 9.6 1.62162 9.6C1.19154 9.6 0.779075 9.43143 0.474962 9.13137C0.170849 8.83131 0 8.42435 0 8C0 7.57565 0.170849 7.16869 0.474962 6.86863C0.779075 6.56857 1.19154 6.4 1.62162 6.4ZM4.86486 15.4667V13.3333H20V15.4667H4.86486ZM1.62162 12.8C2.0517 12.8 2.46417 12.9686 2.76828 13.2686C3.07239 13.5687 3.24324 13.9757 3.24324 14.4C3.24324 14.8243 3.07239 15.2313 2.76828 15.5314C2.46417 15.8314 2.0517 16 1.62162 16C1.19154 16 0.779075 15.8314 0.474962 15.5314C0.170849 15.2313 0 14.8243 0 14.4C0 13.9757 0.170849 13.5687 0.474962 13.2686C0.779075 12.9686 1.19154 12.8 1.62162 12.8Z" fill="#CBD6E3"/>
</svg>
