<svg width="272" height="57" viewBox="0 0 272 57" fill="none" xmlns="http://www.w3.org/2000/svg">
<g clip-path="url(#clip0_173_622)">
<path d="M25.3887 17.5289C25.7449 17.3714 26.11 17.2344 26.4821 17.1187C30.9826 15.9915 35.485 14.8719 39.9893 13.7596C40.0987 13.7325 40.2162 13.7389 40.3259 13.7118C42.3949 13.2029 43.165 12.4445 42.8903 11.1922C42.6293 10.0026 41.5315 9.62021 39.4489 10.1224C32.4689 11.8077 25.4892 13.4974 18.5228 15.2403C15.2115 16.0692 14.6302 17.155 15.7008 20.3614C16.4876 22.7171 16.9135 25.0372 15.9053 27.4479C15.7047 27.9739 15.6763 28.5495 15.8242 29.0925C17.1817 33.7409 18.3364 38.4704 20.0871 42.9698C21.1911 45.8073 23.1068 48.3626 24.8524 50.9128C26.3049 53.0354 26.3444 53.8697 24.022 54.9864C22.2563 55.8524 20.3836 56.4827 18.4523 56.861C15.2834 57.4466 13.4901 56.1824 12.6441 53.1053C10.4119 44.993 9.75599 36.7905 11.3012 28.4723C11.3527 28.1951 11.5343 27.8592 11.4375 27.6495C9.69977 23.8622 12.3044 20.2952 11.9974 16.5616C11.8628 14.9238 11.3098 14.0928 9.72941 13.7332C7.08734 13.1309 4.44185 12.5012 1.85361 11.7018C1.13363 11.4792 0.613327 10.6181 0 10.0501C0.666823 9.4733 1.25391 8.54328 2.01342 8.37228C8.9665 6.80574 15.9533 5.38951 22.9224 3.89355C28.3969 2.71731 33.8652 1.51201 39.3272 0.277648C42.1853 -0.367017 44.9266 0.240326 47.7073 0.814418C59.3428 3.21563 70.9909 5.5578 82.6329 7.92644C83.0183 8.00482 83.4847 8.02823 83.7529 8.26268C84.264 8.70648 85.0136 9.29415 84.9993 9.80174C84.9833 10.3246 84.2609 11.1131 83.6946 11.2845C80.5575 12.2345 77.3791 13.0488 74.2054 13.8737C65.0652 16.2487 55.9314 18.6496 46.772 20.9487C43.0196 21.9225 39.0592 21.7431 35.4111 20.434C32.1707 19.2905 28.8039 18.503 25.3887 17.5289Z" fill="#F6F6F6"/>
<path d="M22.477 22.7397C23.4007 22.8918 24.12 22.96 24.8127 23.133C29.6928 24.3514 34.5394 25.7256 39.4576 26.7577C41.44 27.1612 43.4846 27.155 45.4645 26.7394C50.3782 25.6774 55.2184 24.2785 60.0893 23.019C62.5589 22.3804 62.7511 22.5131 62.6891 24.9961C62.6209 27.7556 62.669 30.5321 62.3654 33.2682C62.0107 36.4606 60.1911 38.9181 57.6411 40.8155C48.7011 47.4685 38.4235 47.5736 29.1469 42.1218C24.6648 39.4882 22.8855 35.1299 22.5076 30.1744C22.3257 27.7776 22.477 25.3557 22.477 22.7397Z" fill="#F6F6F6"/>
<path d="M28.92 17.5363L25.3423 17.6211" stroke="#F6F6F6" stroke-width="2" stroke-linecap="round" stroke-linejoin="round"/>
</g>
<path d="M101.552 24.5723V28H90.1992V24.5723H101.552ZM91.6348 6.67188V28H87.2402V6.67188H91.6348ZM100.072 15.3584V18.6982H90.1992V15.3584H100.072ZM101.537 6.67188V10.1143H90.1992V6.67188H101.537ZM107.25 12.1504L109.872 16.9697L112.567 12.1504H117.064L112.582 19.8994L117.27 28H112.758L109.901 22.9023L107.045 28H102.533L107.221 19.8994L102.738 12.1504H107.25ZM127.67 24.4258V17.3652C127.67 16.8574 127.587 16.4229 127.421 16.0615C127.255 15.6904 126.996 15.4023 126.645 15.1973C126.303 14.9922 125.858 14.8896 125.312 14.8896C124.843 14.8896 124.438 14.9727 124.096 15.1387C123.754 15.2949 123.49 15.5244 123.305 15.8271C123.119 16.1201 123.026 16.4668 123.026 16.8672H118.808C118.808 16.1934 118.964 15.5537 119.276 14.9482C119.589 14.3428 120.043 13.8105 120.639 13.3516C121.234 12.8828 121.942 12.5166 122.763 12.2529C123.593 11.9893 124.521 11.8574 125.546 11.8574C126.776 11.8574 127.87 12.0625 128.827 12.4727C129.784 12.8828 130.536 13.498 131.083 14.3184C131.64 15.1387 131.918 16.1641 131.918 17.3945V24.1768C131.918 25.0459 131.972 25.7588 132.079 26.3154C132.187 26.8623 132.343 27.3408 132.548 27.751V28H128.285C128.08 27.5703 127.924 27.0332 127.816 26.3887C127.719 25.7344 127.67 25.0801 127.67 24.4258ZM128.227 18.3467L128.256 20.7344H125.897C125.341 20.7344 124.857 20.7979 124.447 20.9248C124.037 21.0518 123.7 21.2324 123.437 21.4668C123.173 21.6914 122.978 21.9551 122.851 22.2578C122.733 22.5605 122.675 22.8926 122.675 23.2539C122.675 23.6152 122.758 23.9424 122.924 24.2354C123.09 24.5186 123.329 24.7432 123.642 24.9092C123.954 25.0654 124.32 25.1436 124.74 25.1436C125.375 25.1436 125.927 25.0166 126.396 24.7627C126.864 24.5088 127.226 24.1963 127.479 23.8252C127.743 23.4541 127.88 23.1025 127.89 22.7705L129.003 24.5576C128.847 24.958 128.632 25.373 128.358 25.8027C128.095 26.2324 127.758 26.6377 127.348 27.0186C126.938 27.3896 126.444 27.6973 125.868 27.9414C125.292 28.1758 124.608 28.293 123.817 28.293C122.812 28.293 121.898 28.0928 121.078 27.6924C120.268 27.2822 119.623 26.7207 119.145 26.0078C118.676 25.2852 118.441 24.4648 118.441 23.5469C118.441 22.7168 118.598 21.9795 118.91 21.335C119.223 20.6904 119.682 20.1484 120.287 19.709C120.902 19.2598 121.669 18.9229 122.587 18.6982C123.505 18.4639 124.569 18.3467 125.78 18.3467H128.227ZM139.389 15.4316V28H135.155V12.1504H139.125L139.389 15.4316ZM138.803 19.5186H137.631C137.631 18.415 137.763 17.3994 138.026 16.4717C138.3 15.5342 138.695 14.7236 139.213 14.04C139.74 13.3467 140.39 12.8096 141.161 12.4287C141.933 12.0479 142.826 11.8574 143.842 11.8574C144.545 11.8574 145.189 11.9648 145.775 12.1797C146.361 12.3848 146.864 12.7119 147.284 13.1611C147.714 13.6006 148.046 14.1768 148.28 14.8896C148.515 15.5928 148.632 16.4375 148.632 17.4238V28H144.413V17.8926C144.413 17.1699 144.315 16.6133 144.12 16.2227C143.925 15.832 143.646 15.5586 143.285 15.4023C142.934 15.2461 142.509 15.168 142.011 15.168C141.464 15.168 140.985 15.2803 140.575 15.5049C140.175 15.7295 139.843 16.042 139.579 16.4424C139.315 16.833 139.12 17.292 138.993 17.8193C138.866 18.3467 138.803 18.9131 138.803 19.5186ZM148.236 19.0352L146.728 19.2256C146.728 18.1904 146.854 17.2285 147.108 16.3398C147.372 15.4512 147.758 14.6699 148.266 13.9961C148.783 13.3223 149.423 12.7998 150.185 12.4287C150.946 12.0479 151.825 11.8574 152.821 11.8574C153.583 11.8574 154.276 11.9697 154.901 12.1943C155.526 12.4092 156.059 12.7559 156.498 13.2344C156.947 13.7031 157.289 14.3184 157.523 15.0801C157.768 15.8418 157.89 16.7744 157.89 17.8779V28H153.656V17.8779C153.656 17.1455 153.559 16.5889 153.363 16.208C153.178 15.8174 152.904 15.5488 152.543 15.4023C152.191 15.2461 151.771 15.168 151.283 15.168C150.775 15.168 150.331 15.2705 149.95 15.4756C149.569 15.6709 149.252 15.9443 148.998 16.2959C148.744 16.6475 148.554 17.0576 148.427 17.5264C148.3 17.9854 148.236 18.4883 148.236 19.0352ZM163.427 6.67188H167.147L172.626 22.3311L178.104 6.67188H181.825L174.12 28H171.132L163.427 6.67188ZM161.42 6.67188H165.126L165.8 21.9355V28H161.42V6.67188ZM180.126 6.67188H183.847V28H179.452V21.9355L180.126 6.67188ZM195.99 24.4258V17.3652C195.99 16.8574 195.907 16.4229 195.741 16.0615C195.575 15.6904 195.316 15.4023 194.965 15.1973C194.623 14.9922 194.179 14.8896 193.632 14.8896C193.163 14.8896 192.758 14.9727 192.416 15.1387C192.074 15.2949 191.811 15.5244 191.625 15.8271C191.439 16.1201 191.347 16.4668 191.347 16.8672H187.128C187.128 16.1934 187.284 15.5537 187.597 14.9482C187.909 14.3428 188.363 13.8105 188.959 13.3516C189.555 12.8828 190.263 12.5166 191.083 12.2529C191.913 11.9893 192.841 11.8574 193.866 11.8574C195.097 11.8574 196.19 12.0625 197.147 12.4727C198.104 12.8828 198.856 13.498 199.403 14.3184C199.96 15.1387 200.238 16.1641 200.238 17.3945V24.1768C200.238 25.0459 200.292 25.7588 200.399 26.3154C200.507 26.8623 200.663 27.3408 200.868 27.751V28H196.605C196.4 27.5703 196.244 27.0332 196.137 26.3887C196.039 25.7344 195.99 25.0801 195.99 24.4258ZM196.547 18.3467L196.576 20.7344H194.218C193.661 20.7344 193.178 20.7979 192.768 20.9248C192.357 21.0518 192.021 21.2324 191.757 21.4668C191.493 21.6914 191.298 21.9551 191.171 22.2578C191.054 22.5605 190.995 22.8926 190.995 23.2539C190.995 23.6152 191.078 23.9424 191.244 24.2354C191.41 24.5186 191.649 24.7432 191.962 24.9092C192.274 25.0654 192.641 25.1436 193.061 25.1436C193.695 25.1436 194.247 25.0166 194.716 24.7627C195.185 24.5088 195.546 24.1963 195.8 23.8252C196.063 23.4541 196.2 23.1025 196.21 22.7705L197.323 24.5576C197.167 24.958 196.952 25.373 196.679 25.8027C196.415 26.2324 196.078 26.6377 195.668 27.0186C195.258 27.3896 194.765 27.6973 194.188 27.9414C193.612 28.1758 192.929 28.293 192.138 28.293C191.132 28.293 190.219 28.0928 189.398 27.6924C188.588 27.2822 187.943 26.7207 187.465 26.0078C186.996 25.2852 186.762 24.4648 186.762 23.5469C186.762 22.7168 186.918 21.9795 187.23 21.335C187.543 20.6904 188.002 20.1484 188.607 19.709C189.223 19.2598 189.989 18.9229 190.907 18.6982C191.825 18.4639 192.89 18.3467 194.101 18.3467H196.547ZM211.254 12.1504V15.1387H202.025V12.1504H211.254ZM204.311 8.23926H208.529V23.2246C208.529 23.6836 208.588 24.0352 208.705 24.2793C208.832 24.5234 209.018 24.6943 209.262 24.792C209.506 24.8799 209.813 24.9238 210.185 24.9238C210.448 24.9238 210.683 24.9141 210.888 24.8945C211.103 24.8652 211.283 24.8359 211.43 24.8066L211.444 27.9121C211.083 28.0293 210.692 28.1221 210.272 28.1904C209.853 28.2588 209.389 28.293 208.881 28.293C207.953 28.293 207.143 28.1416 206.449 27.8389C205.766 27.5264 205.238 27.0283 204.867 26.3447C204.496 25.6611 204.311 24.7627 204.311 23.6494V8.23926ZM220.204 24.9971C220.722 24.9971 221.181 24.8994 221.581 24.7041C221.981 24.499 222.294 24.2158 222.519 23.8545C222.753 23.4834 222.875 23.0488 222.885 22.5508H226.854C226.845 23.6641 226.547 24.6553 225.961 25.5244C225.375 26.3838 224.589 27.0625 223.603 27.5605C222.616 28.0488 221.513 28.293 220.292 28.293C219.062 28.293 217.987 28.0879 217.069 27.6777C216.161 27.2676 215.404 26.7012 214.799 25.9785C214.193 25.2461 213.739 24.3965 213.437 23.4297C213.134 22.4531 212.982 21.4082 212.982 20.2949V19.8701C212.982 18.7471 213.134 17.7021 213.437 16.7354C213.739 15.7588 214.193 14.9092 214.799 14.1865C215.404 13.4541 216.161 12.8828 217.069 12.4727C217.978 12.0625 219.042 11.8574 220.263 11.8574C221.562 11.8574 222.699 12.1064 223.676 12.6045C224.662 13.1025 225.434 13.8154 225.99 14.7432C226.557 15.6611 226.845 16.75 226.854 18.0098H222.885C222.875 17.4824 222.763 17.0039 222.548 16.5742C222.343 16.1445 222.04 15.8027 221.64 15.5488C221.249 15.2852 220.766 15.1533 220.189 15.1533C219.574 15.1533 219.071 15.2852 218.681 15.5488C218.29 15.8027 217.987 16.1543 217.772 16.6035C217.558 17.043 217.406 17.5459 217.318 18.1123C217.24 18.6689 217.201 19.2549 217.201 19.8701V20.2949C217.201 20.9102 217.24 21.501 217.318 22.0674C217.396 22.6338 217.543 23.1367 217.758 23.5762C217.982 24.0156 218.29 24.3623 218.681 24.6162C219.071 24.8701 219.579 24.9971 220.204 24.9971ZM233.417 5.5V28H229.198V5.5H233.417ZM232.816 19.5186H231.659C231.669 18.415 231.815 17.3994 232.099 16.4717C232.382 15.5342 232.787 14.7236 233.314 14.04C233.842 13.3467 234.472 12.8096 235.204 12.4287C235.946 12.0479 236.767 11.8574 237.665 11.8574C238.446 11.8574 239.154 11.9697 239.789 12.1943C240.434 12.4092 240.985 12.7607 241.444 13.249C241.913 13.7275 242.274 14.3574 242.528 15.1387C242.782 15.9199 242.909 16.8672 242.909 17.9805V28H238.661V17.9512C238.661 17.248 238.559 16.6963 238.354 16.2959C238.158 15.8857 237.87 15.5977 237.489 15.4316C237.118 15.2559 236.659 15.168 236.112 15.168C235.507 15.168 234.989 15.2803 234.56 15.5049C234.14 15.7295 233.803 16.042 233.549 16.4424C233.295 16.833 233.109 17.292 232.992 17.8193C232.875 18.3467 232.816 18.9131 232.816 19.5186ZM253.412 28.293C252.182 28.293 251.078 28.0977 250.102 27.707C249.125 27.3066 248.295 26.7549 247.611 26.0518C246.938 25.3486 246.42 24.5332 246.059 23.6055C245.697 22.668 245.517 21.6719 245.517 20.6172V20.0312C245.517 18.8301 245.688 17.7314 246.029 16.7354C246.371 15.7393 246.859 14.875 247.494 14.1426C248.139 13.4102 248.92 12.8486 249.838 12.458C250.756 12.0576 251.791 11.8574 252.943 11.8574C254.066 11.8574 255.062 12.043 255.932 12.4141C256.801 12.7852 257.528 13.3125 258.114 13.9961C258.71 14.6797 259.159 15.5 259.462 16.457C259.765 17.4043 259.916 18.459 259.916 19.6211V21.3789H247.318V18.5664H255.771V18.2441C255.771 17.6582 255.663 17.1357 255.448 16.6768C255.243 16.208 254.931 15.8369 254.511 15.5635C254.091 15.29 253.554 15.1533 252.899 15.1533C252.343 15.1533 251.864 15.2754 251.464 15.5195C251.063 15.7637 250.736 16.1055 250.482 16.5449C250.238 16.9844 250.053 17.502 249.926 18.0977C249.809 18.6836 249.75 19.3281 249.75 20.0312V20.6172C249.75 21.252 249.838 21.8379 250.014 22.375C250.199 22.9121 250.458 23.376 250.79 23.7666C251.132 24.1572 251.542 24.46 252.021 24.6748C252.509 24.8896 253.061 24.9971 253.676 24.9971C254.438 24.9971 255.146 24.8506 255.8 24.5576C256.464 24.2549 257.035 23.8008 257.514 23.1953L259.564 25.4219C259.232 25.9004 258.778 26.3594 258.202 26.7988C257.636 27.2383 256.952 27.5996 256.151 27.8828C255.351 28.1562 254.438 28.293 253.412 28.293ZM266.537 15.6074V28H262.318V12.1504H266.288L266.537 15.6074ZM271.312 12.0479L271.239 15.959C271.034 15.9297 270.785 15.9053 270.492 15.8857C270.209 15.8564 269.95 15.8418 269.716 15.8418C269.12 15.8418 268.603 15.9199 268.163 16.0762C267.733 16.2227 267.372 16.4424 267.079 16.7354C266.796 17.0283 266.581 17.3848 266.435 17.8047C266.298 18.2246 266.22 18.7031 266.2 19.2402L265.351 18.9766C265.351 17.9512 265.453 17.0088 265.658 16.1494C265.863 15.2803 266.161 14.5234 266.552 13.8789C266.952 13.2344 267.44 12.7363 268.017 12.3848C268.593 12.0332 269.252 11.8574 269.994 11.8574C270.229 11.8574 270.468 11.877 270.712 11.916C270.956 11.9453 271.156 11.9893 271.312 12.0479Z" fill="#F6F6F6"/>
<defs>
<clipPath id="clip0_173_622">
<rect width="85" height="57" fill="white"/>
</clipPath>
</defs>
</svg>
